frame:86   pts:88064   pts_time:1.99692
lavfi.silence_start=0
frame:162  pts:165888  pts_time:3.76163
lavfi.silence_end=3.7805
lavfi.silence_duration=3.7805
frame:634  pts:649216  pts_time:14.7215
lavfi.silence_start=12.7422
frame:682  pts:698368  pts_time:15.836
lavfi.silence_end=15.8557
lavfi.silence_duration=3.11354
frame:768  pts:786432  pts_time:17.8329
lavfi.silence_start=15.8558
frame:794  pts:813056  pts_time:18.4366
lavfi.silence_end=18.4529
lavfi.silence_duration=2.59714
frame:949  pts:971776  pts_time:22.0357
lavfi.silence_start=20.0434
frame:1165 pts:1192960 pts_time:27.0512
lavfi.silence_end=27.0544
lavfi.silence_duration=7.01104
frame:1455 pts:1489920 pts_time:33.785
lavfi.silence_start=31.7912
frame:1482 pts:1517568 pts_time:34.412
lavfi.silence_end=34.4258
lavfi.silence_duration=2.63454
frame:1800 pts:1843200 pts_time:41.7959
lavfi.silence_start=39.8068
frame:1823 pts:1866752 pts_time:42.33
lavfi.silence_end=42.3353
lavfi.silence_duration=2.52844
frame:2203 pts:2255872 pts_time:51.1536
lavfi.silence_start=49.1563
frame:2251 pts:2305024 pts_time:52.2681
lavfi.silence_end=52.2682
lavfi.silence_duration=3.11188
frame:2414 pts:2471936 pts_time:56.053
lavfi.silence_start=54.0743
frame:2443 pts:2501632 pts_time:56.7263
lavfi.silence_end=56.7336
lavfi.silence_duration=2.65932
frame:2597 pts:2659328 pts_time:60.3022
lavfi.silence_start=58.3246
frame:2717 pts:2782208 pts_time:63.0886
lavfi.silence_end=63.0941
lavfi.silence_duration=4.76941
frame:2902 pts:2971648 pts_time:67.3843
lavfi.silence_start=65.4055
frame:2987 pts:3058688 pts_time:69.358
lavfi.silence_end=69.3768
lavfi.silence_duration=3.97132
frame:3119 pts:3193856 pts_time:72.423
lavfi.silence_start=70.4339
frame:3133 pts:3208192 pts_time:72.7481
lavfi.silence_end=72.7587
lavfi.silence_duration=2.32481
frame:3219 pts:3296256 pts_time:74.745
lavfi.silence_start=72.7656
frame:3379 pts:3460096 pts_time:78.4602
lavfi.silence_end=78.4668
lavfi.silence_duration=5.7012
frame:3510 pts:3594240 pts_time:81.502
lavfi.silence_start=79.5127
frame:3721 pts:3810304 pts_time:86.4015
lavfi.silence_end=86.4021
lavfi.silence_duration=6.88937
frame:4031 pts:4127744 pts_time:93.5996
lavfi.silence_start=91.6195
frame:4358 pts:4462592 pts_time:101.193
lavfi.silence_end=101.21
lavfi.silence_duration=9.59093
frame:4466 pts:4573184 pts_time:103.7
lavfi.silence_start=101.723
frame:4671 pts:4783104 pts_time:108.46
lavfi.silence_end=108.48
lavfi.silence_duration=6.75769
frame:4760 pts:4874240 pts_time:110.527
lavfi.silence_start=108.527
frame:4948 pts:5066752 pts_time:114.892
lavfi.silence_end=114.902
lavfi.silence_duration=6.37463
frame:5244 pts:5369856 pts_time:121.765
lavfi.silence_start=119.771
frame:5568 pts:5701632 pts_time:129.289
lavfi.silence_end=129.307
lavfi.silence_duration=9.53608
frame:5657 pts:5792768 pts_time:131.355
lavfi.silence_start=129.37
frame:5847 pts:5987328 pts_time:135.767
lavfi.silence_end=135.776
lavfi.silence_duration=6.40567
frame:6071 pts:6216704 pts_time:140.968
lavfi.silence_start=138.978
frame:6348 pts:6500352 pts_time:147.4
lavfi.silence_end=147.418
lavfi.silence_duration=8.44007
frame:6528 pts:6684672 pts_time:151.58
lavfi.silence_start=149.598
frame:6827 pts:6990848 pts_time:158.523
lavfi.silence_end=158.524
lavfi.silence_duration=8.92667
frame:6933 pts:7099392 pts_time:160.984
lavfi.silence_start=158.995
frame:6952 pts:7118848 pts_time:161.425
lavfi.silence_end=161.435
lavfi.silence_duration=2.44005
frame:7039 pts:7207936 pts_time:163.445
lavfi.silence_start=161.449
frame:7200 pts:7372800 pts_time:167.184
lavfi.silence_end=167.195
lavfi.silence_duration=5.74553
frame:7450 pts:7628800 pts_time:172.989
lavfi.silence_start=171.002
frame:7456 pts:7634944 pts_time:173.128
lavfi.silence_end=173.138
lavfi.silence_duration=2.13576
